<?xml version="1.0" encoding="UTF-8" standalone="no"?>
<!-- Created with Inkscape (http://www.inkscape.org/) -->

<svg
   xmlns:dc="http://purl.org/dc/elements/1.1/"
   xmlns:cc="http://creativecommons.org/ns#"
   xmlns:rdf="http://www.w3.org/1999/02/22-rdf-syntax-ns#"
   xmlns:svg="http://www.w3.org/2000/svg"
   xmlns="http://www.w3.org/2000/svg"
   xmlns:sodipodi="http://sodipodi.sourceforge.net/DTD/sodipodi-0.dtd"
   xmlns:inkscape="http://www.inkscape.org/namespaces/inkscape"
   width="739.61646mm"
   height="245.93198mm"
   id="svg4632"
   version="1.1"
   inkscape:version="0.92.4 (5da689c313, 2019-01-14)"
   sodipodi:docname="OCVLogo.svg"
   inkscape:export-filename="/home/skepper/ocv/OCVHelmetLogo.png"
   inkscape:export-xdpi="102.31"
   inkscape:export-ydpi="102.31">
  <defs
     id="defs4634" />
  <sodipodi:namedview
     id="base"
     pagecolor="#ffffff"
     bordercolor="#ffffff"
     borderopacity="0.0"
     inkscape:pageopacity="0.0"
     inkscape:pageshadow="0"
     inkscape:zoom="0.11313709"
     inkscape:cx="2916.8552"
     inkscape:cy="134.23254"
     inkscape:document-units="px"
     inkscape:current-layer="layer1"
     showgrid="false"
     inkscape:window-width="1662"
     inkscape:window-height="867"
     inkscape:window-x="610"
     inkscape:window-y="165"
     inkscape:window-maximized="0"
     units="mm"
     fit-margin-top="0"
     fit-margin-left="0"
     fit-margin-right="0"
     fit-margin-bottom="0"
     inkscape:pagecheckerboard="true"
     showborder="true"
     borderlayer="false" />
  <metadata
     id="metadata4637">
    <rdf:RDF>
      <cc:Work
         rdf:about="">
        <dc:format>image/svg+xml</dc:format>
        <dc:type
           rdf:resource="http://purl.org/dc/dcmitype/StillImage" />
        <dc:title></dc:title>
      </cc:Work>
    </rdf:RDF>
  </metadata>
  <g
     inkscape:label="Layer 1"
     inkscape:groupmode="layer"
     id="layer1"
     transform="translate(968.76548,573.10808)">
    <g
       transform="matrix(8.9346076,0,0,8.5506478,-3230.6091,4685.3087)"
       id="g10723"
       style="stroke-width:2.61914635;stroke-miterlimit:4;stroke-dasharray:none">
      <g
         transform="matrix(0.01687249,0,0,0.01846101,201.91179,-645.81741)"
         style="stroke:#ffffff;stroke-width:148.40290833;stroke-miterlimit:4;stroke-dasharray:none;stroke-opacity:0.96825412"
         id="g9302">
        <g
           id="g9304"
           style="fill:none;stroke:#ffffff;stroke-width:148.40290833;stroke-miterlimit:4;stroke-dasharray:none;stroke-opacity:0.96825412">
          <path
             inkscape:connector-curvature="0"
             id="path9306"
             d="m 3111.308,7473 v -1 h 1 l 1,-1 v 0 l 1,-1 h 1 2 3 l 3,1 6,1 17,5 20,6 11,1 12,1 h 12 l 12,-2 12,-4 6,-3 6,-3 6,-4 6,-5 11,-11 11,-15 13,-20 26,-48 56,-120 53,-120 24,-49 10,-19 10,-16 4,-8 5,-10 7,-25 7,-31 6,-36 9,-82 6,-88 6,-157 v -50 l -1,-14 v -4 l -1,-1 v 0 0 0 0 h -1 l -1,-1 -5,-2 -15,-8 -45,-26 -24,-16 -21,-14 -9,-7 -7,-6 -5,-6 -2,-2 -1,-2 v -1 -1 -1 -1 -1 l 1,-1 2,-2 2,-2 3,-2 7,-4 19,-8 22,-9 23,-8 20,-9 8,-4 7,-4 2,-3 2,-2 1,-2 1,-1 v -1 l 1,-17 2,-32 5,-88 4,-47 5,-45 7,-37 4,-14 4,-11 22,-46 26,-58 24,-53 9,-20 7,-12 1,-1 v -1 l 1,-3 v -4 -4 l -2,-9 -3,-12 -9,-28 -11,-30 -11,-32 -9,-31 -3,-13 -2,-13 -1,-10 v -5 l 1,-4 6,-18 7,-23 10,-25 10,-25 11,-23 11,-19 5,-7 4,-5 2,-2 2,-1 1,-1 h 1 1 1 1 l 1,1 2,1 3,2 3,3 7,8 7,10 17,25 18,30 16,31 13,29 5,14 3,11 1,10 v 4 4 l -2,8 -3,9 -8,22 -21,54 -11,27 -8,24 -2,10 -2,9 -1,4 v 3 3 l 1,2 5,14 9,23 23,62 12,31 13,27 5,11 5,8 3,3 2,2 2,2 h 1 1 v 0 l 1,-1 1,-1 2,-7 4,-27 13,-98 46,-324 37,-196 49,-200 30,-96 34,-92 37,-85 42,-77 78,-132 83,-126 88,-120 90,-111 91,-102 89,-90 87,-78 83,-63 127,-86 72,-45 34,-20 9,-6 4,-3 3,-3 1,-2 2,-2 v -2 l 1,-3 1,-6 v -7 -7 l -1,-8 -3,-15 -7,-29 -2,-10 v -3 -1 -1 0 0 0 l 1,-1 1,-1 7,-2 22,-8 67,-22 70,-23 25,-10 8,-3 2,-2 2,-1 1,-1 v 0 l 1,-3 1,-3 v -3 -9 l -1,-12 -9,-58 -5,-32 -4,-29 -1,-13 1,-11 v -5 l 1,-4 1,-3 1,-3 8,-13 10,-19 23,-47 21,-47 7,-18 2,-8 1,-5 v -9 -18 l -1,-57 -5,-165 -4,-170 v -62 l 1,-20 1,-13 9,-43 7,-28 11,-32 15,-36 20,-39 26,-42 32,-45 34,-40 30,-28 13,-11 12,-9 12,-8 10,-5 32,-16 6,-3 4,-3 3,-2 2,-2 1,-2 2,-2 3,-6 4,-10 10,-26 21,-67 18,-65 6,-22 1,-6 1,-3 v -1 -1 -1 l -2,-3 -4,-8 -14,-25 -7,-16 -4,-9 -3,-10 -2,-9 -2,-11 -2,-10 v -11 l 1,-11 1,-11 3,-12 4,-11 4,-11 5,-11 11,-20 6,-9 6,-8 6,-8 6,-6 5,-5 5,-4 3,-1 2,-1 2,-1 h 2 1 1 l 2,1 2,2 2,2 5,7 5,8 5,10 5,11 10,25 9,28 6,27 2,13 2,12 v 10 l -1,9 -2,8 -1,6 -2,6 -2,4 -2,4 -2,4 -4,5 -4,5 -1,2 -1,3 -1,2 -1,4 -1,4 v 4 3 l 1,4 2,11 8,30 23,79 20,69 3,11 1,7 v 3 0 1 0 0 0 h -1 v -1 0 l -1,-1 -1,-2 v -1 0 -1 0 l 1,-1 h 1 2 l 2,1 8,2 9,5 12,6 28,18 33,24 35,31 35,36 17,20 16,21 15,23 13,23 12,25 10,25 18,49 13,47 9,42 5,33 4,30 -8,480 26,51 19,41 7,17 2,7 2,6 1,6 v 8 l -1,22 -3,57 -1,30 1,28 2,13 2,11 3,9 2,4 2,4 3,3 3,3 4,3 6,3 11,4 15,5 32,7 36,6 35,6 31,5 12,4 10,3 4,2 3,2 2,3 1,1 v 1 l 1,6 2,8 2,19 1,22 v 22 19 l -1,7 v 6 l -1,2 v 1 h -1 v 0 0 1 0 -1 0 h -1 v 0 l -1,-2 -1,-6 30,27 40,32 100,71 223,158 57,47 65,61 71,76 76,90 79,104 80,119 80,133 77,146 36,80 31,84 54,177 41,179 31,170 38,273 10,81 4,21 1,6 1,2 h 1 v 0 h 1 1 l 2,-1 2,-2 2,-2 5,-5 6,-7 14,-18 14,-21 14,-24 12,-23 10,-20 3,-9 2,-7 1,-3 v -4 l -1,-7 -1,-8 -3,-9 -8,-18 -9,-19 -10,-20 -8,-20 -4,-11 -3,-10 -1,-10 -1,-10 1,-10 1,-12 2,-13 4,-13 8,-28 11,-26 6,-13 7,-11 6,-11 7,-8 7,-7 3,-3 4,-2 3,-1 3,-1 h 4 3 l 3,1 4,2 3,3 3,3 7,8 6,11 6,12 6,13 12,29 9,27 8,25 6,23 -8,17 -7,17 -8,22 -7,22 -3,11 -2,11 -2,10 v 9 l 1,4 v 4 l 2,3 1,3 19,29 22,39 21,37 7,15 2,6 2,5 1,8 1,14 2,42 7,120 9,120 5,41 4,14 1,4 1,2 1,1 2,2 2,1 2,1 3,1 h 3 l 3,1 7,-1 7,-1 7,-2 16,-4 16,-4 7,-1 7,-1 h 3 3 l 3,1 h 3 l 2,1 2,2 2,2 1,2 1,1 v 2 3 3 l -1,3 -1,4 -2,4 -6,8 -15,19 -18,21 -20,22 -18,23 -8,11 -6,12 -4,10 -2,6 -1,5 -7,73 -7,109 -2,56 v 50 l 3,38 2,14 1,5 2,4 25,45 40,65 39,61 15,20 5,7 2,2 2,1 v 0 0 h 1 v -2 l 2,-6 2,-24 5,-90 6,-278 2,-280 -1,-94 v -27 l -1,-7 v -2 -1 0 l -2,-3 -3,-5 -9,-15 -13,-25 -16,-34 -2,-6 -2,-7 -2,-20 -1,-53 3,-68 5,-73 15,-136 7,-47 2,-15 2,-8 v -1 l 1,-1 2,-2 2,-2 3,-1 3,-1 4,-1 8,-2 21,-3 24,-1 47,-3 9,-1 9,-2 3,-1 3,-1 3,-1 2,-2 1,-1 1,-1 1,-4 1,-4 1,-5 1,-14 1,-16 -1,-83 v -43 l 2,-37 2,-15 2,-6 2,-5 2,-4 2,-3 1,-2 h 2 l 1,-1 h 2 3 l 3,1 3,1 2,2 3,2 2,3 2,2 2,3 3,7 3,8 2,8 2,9 4,30 1,5 1,4 1,1 v 1 0 0 0 0 h 1 v 0 0 0 -1 l 1,-1 v -1 -1 -4 -4 l -1,-27 -1,-40 1,-25 2,-27 14,-194 5,-52 6,-44 3,-17 4,-13 2,-5 2,-3 1,-1 1,-1 1,-1 h 1 1 1 l 1,1 h 1 l 2,2 2,2 2,3 1,3 3,8 2,9 3,10 3,22 5,39 1,7 1,5 1,1 v 1 h 1 v 0 0 0 0 h 1 v 0 l 1,-1 v -1 l 1,-2 v -2 l 1,-5 1,-6 1,-40 3,-63 8,-89 38,-353 25,-178 7,-32 6,-25 4,-9 3,-7 3,-5 1,-1 2,-1 h 1 1 l 1,1 2,1 1,3 3,6 4,10 7,26 7,34 30,187 29,190 14,65 6,19 3,5 2,2 1,1 9,4 1,1 h 1 1 v 0 h 1 v -1 h 1 v -1 l 1,-1 1,-2 1,-8 3,-30 41,-436 144,-1516 79,-791 31,-251 12,-72 5,-19 2,-6 1,-1 1,-1 v 0 h 1 l 1,1 2,5 6,19 15,80 42,288 109,886 145,1294 33,243 26,167 12,56 5,16 2,4 1,2 h 1 v 0 0 h 1 l 1,-1 1,-1 1,-3 2,-5 2,-8 9,-51 22,-153 24,-154 7,-29 6,-22 3,-8 3,-5 1,-3 2,-1 1,-1 h 1 1 1 l 1,1 1,1 2,2 1,3 4,7 3,10 8,28 8,35 31,189 36,274 2,131 2,46 3,39 2,14 2,10 1,3 1,1 v 1 h 1 v 0 0 h 1 v 0 l 1,-1 27,-45 3,-4 4,-4 3,-4 1,-1 h 1 l 2,-1 v 0 h 1 1 v 0 h 1 v 1 h 1 l 1,2 1,2 1,2 5,22 9,41 22,112 29,156 13,137 13,98 7,35 3,12 2,4 1,1 1,1 1,1 h 1 l 3,1 3,1 4,-1 8,-1 11,-2 53,-16 28,-7 13,-2 13,-1 h 11 l 5,1 5,2 4,2 4,3 3,3 3,4 3,5 2,7 5,19 10,53 9,68 8,74 9,139 v 49 l -1,16 -1,5 -1,4 -3,5 -2,5 -6,8 -12,17 -6,9 -3,5 -3,5 -2,7 -2,7 -2,7 -2,9 -1,14 -1,24 1,70 7,202 21,397 8,57 4,44 3,60 v 10 l 2,9 2,8 3,7 3,7 5,6 7,7 8,6 9,6 10,4 10,3 11,2 h 11 12 l 27,-2 71,-9 45,-5 54,-2 667,-15 h 26 l 25,3 44,5 18,2 h 8 7 l 7,-1 2,-1 3,-1 2,-2 2,-1 2,-2 1,-2 1,-1 v -1 -1 l -1,-1 v -1 l -1,-1 -3,-3 -4,-2 -5,-2 -12,-6 -80,-33 -54,-28 -30,-18 -30,-21 -30,-24 -32,-28 -30,-31 -31,-36 -45,-67 -50,-83 -105,-189 -91,-183 -33,-75 -12,-31 -8,-26 -34,-126 -39,-183 -18,-106 -13,-114 -8,-118 v -121 l 8,-132 18,-152 26,-163 35,-169 44,-168 51,-160 60,-145 32,-64 35,-59 77,-108 87,-101 47,-48 49,-44 51,-42 54,-39 54,-34 56,-31 58,-26 59,-22 60,-17 61,-11 62,-6 h 62 l 63,5 62,9 61,13 62,18 60,21 59,25 58,30 57,33 56,38 53,43 52,46 50,51 48,56 46,60 43,64 40,69 70,144 56,144 43,145 32,143 22,143 14,140 8,136 4,133 -3,254 -9,122 -14,119 -20,118 -29,116 -37,116 -46,115 -52,111 -55,103 -56,94 -57,84 -57,73 -56,63 -28,26 -27,24 -26,21 -26,17 -47,27 -40,20 -32,14 -26,10 -19,7 -7,3 -6,3 -2,2 -2,1 -2,2 -2,2 -1,2 v 2 l -1,2 v 2 1 l 1,1 v 1 l 1,1 3,2 3,2 5,2 5,1 13,2 33,3 39,1 140,-2 95,-3 109,-8 131,-9 161,-7 930,-3 61,1 45,2 53,5 8,1 h 6 4 2 l 2,-1 1,-1 2,-1 1,-1 1,-1 3,-4 3,-5 1,-1 v -2 l -1,-2 v -2 l -3,-4 -5,-5 -14,-12 -20,-15 -120,-87 -74,-61 -75,-75 -36,-42 -34,-45 -31,-49 -28,-52 -50,-115 -46,-125 -42,-128 -37,-126 -31,-119 -23,-104 -15,-85 -5,-32 -2,-26 -5,-186 6,-321 11,-182 20,-179 31,-166 20,-75 23,-66 54,-132 66,-141 38,-72 43,-71 49,-69 54,-67 61,-62 68,-58 76,-51 85,-45 93,-36 104,-28 113,-17 125,-6 64,3 62,8 59,13 58,18 109,48 100,62 91,74 84,83 75,89 66,93 59,93 50,91 77,165 45,124 10,39 3,13 v 8 l -1,5 -1,5 -3,5 -3,5 -8,10 -10,10 -13,10 -14,10 -33,19 -143,72 -158,87 -39,19 -34,13 -13,4 -12,2 h -4 -4 l -2,-1 h -2 l -1,-1 -1,-1 -1,-1 -1,-3 -3,-6 -7,-21 -19,-67 -28,-91 -38,-105 -24,-53 -26,-52 -30,-49 -34,-46 -37,-40 -20,-17 -20,-15 -22,-14 -23,-11 -24,-8 -25,-6 -98,-13 -45,-3 h -43 l -42,2 -40,6 -38,9 -37,13 -35,17 -35,22 -34,25 -33,31 -33,36 -32,41 -32,47 -32,52 -30,59 -27,66 -24,71 -20,75 -31,162 -16,170 -4,172 11,167 10,79 14,76 17,71 20,65 45,119 47,106 52,94 27,42 29,38 31,35 32,31 34,27 36,23 38,19 40,14 43,10 45,6 14,3 15,1 h 31 l 31,-5 33,-9 34,-12 33,-15 33,-18 33,-20 63,-45 57,-50 48,-50 20,-25 17,-23 14,-24 13,-25 11,-26 9,-26 16,-54 12,-52 18,-87 4,-17 4,-13 2,-5 2,-5 3,-3 2,-3 1,-1 2,-1 3,-1 5,-1 h 5 l 11,1 14,4 15,4 17,7 37,15 80,40 72,38 68,35 70,38 33,20 28,21 12,11 11,10 8,11 7,11 1,12 v 12 l -1,11 -1,11 -3,10 -2,11 -8,21 -9,22 -12,25 -29,60 -49,107 -77,155 -44,82 -48,78 -48,69 -25,30 -24,25 -46,41 -41,31 -36,25 -30,18 -24,15 -10,6 -8,5 -6,6 -2,2 -2,3 -2,2 -1,3 v 3 3 1 l 1,2 1,1 2,1 4,3 5,2 16,3 20,3 55,3 70,1 360,-3 473,-5 110,2 109,4 97,3 76,2 h 50 l 31,-1 9,-1 4,-1 h 3 l 2,-1 3,-1 1,-2 2,-1 v -1 h 1 v -2 -2 -3 -8 l -2,-9 -4,-23 -6,-28 -27,-111 -275,-1351 -320,-1570 -9,-34 -5,-21 -4,-21 -3,-21 v -10 -9 -8 l 2,-8 1,-3 1,-3 1,-3 2,-2 2,-2 2,-2 2,-1 3,-2 2,-1 3,-1 6,-1 h 7 7 l 16,1 39,6 22,2 23,1 h 251 l 20,-1 17,-1 26,-4 11,-1 4,-1 5,1 4,1 4,1 4,2 4,3 2,2 2,2 1,2 1,2 3,5 2,5 1,6 1,6 1,13 2,32 2,18 3,18 347,1683 88,431 15,64 15,48 7,17 3,6 4,6 3,5 4,3 4,3 h 2 l 2,1 h 1 1 l 1,-1 2,-1 2,-4 3,-5 5,-15 5,-21 12,-55 12,-71 60,-350 186,-903 107,-516 52,-247 9,-44 12,-58 12,-54 6,-20 3,-8 1,-3 2,-2 2,-2 1,-2 2,-1 2,-2 1,-1 2,-1 2,-1 h 3 l 4,-1 h 5 12 l 31,3 h 20 l 23,-1 286,6 h 22 l 19,-1 30,-3 5,-1 6,1 h 2 l 2,1 h 2 l 2,1 2,1 1,2 2,2 1,1 2,3 1,2 2,6 3,2 2,3 2,2 1,4 1,3 1,4 v 9 11 l -2,11 -5,25 -16,59 -9,31 -7,31 -308,1492 -207,995 -99,472 -5,18 -4,18 -2,16 -1,8 v 7 8 l 1,6 2,6 2,6 3,5 4,5 4,4 6,4 3,1 3,2 8,1 8,2 h 8 l 19,-1 22,-3 49,-6 26,-2 h 28 l 550,17 497,19 287,8 285,2 1143,-40 100,-4 10,-1 h 5 l 1,-1 h 1 v 0 0 0 0 -1 0 0 h -1 l -15,-5 -2,-1 -1,-1 h -1 v -1 -1 0 -1 0 l 1,-1 h 1 l 2,-2 3,-1 11,-90 11,-132 22,-326 13,-301 1,-100 -1,-30 -1,-10 -1,-3 -1,-2 -3,-12 -4,-11 -5,-8 -7,-6 -7,-5 -7,-4 -9,-2 h -9 -10 l -10,2 -22,5 -23,9 -24,10 -47,22 -23,10 -20,8 -19,5 -8,1 -8,-1 -6,-1 -4,-1 -2,-2 -3,-2 -2,-2 -4,-6 -8,-14 -11,-14 -27,-31 -68,-69 -34,-38 -16,-20 -15,-21 -12,-21 -11,-22 -7,-23 -5,-24 -7,-25 -5,-25 -4,-26 -2,-27 v -52 l 4,-51 4,-24 5,-22 6,-21 7,-18 8,-17 8,-13 5,-6 4,-5 5,-5 5,-3 4,-5 3,-4 4,-3 4,-3 5,-2 4,-2 5,-2 4,-1 5,-1 h 5 l 11,1 11,2 11,3 24,8 26,11 53,24 14,7 17,10 36,25 80,60 38,28 17,12 17,9 14,7 6,2 6,1 5,1 5,-1 h 2 l 2,-1 1,-2 2,-1 2,-4 2,-5 2,-6 1,-7 1,-17 v -20 l -6,-48 -11,-55 -15,-58 -18,-57 -21,-52 -11,-23 -12,-20 -24,-36 -28,-33 -31,-31 -33,-29 -36,-26 -39,-24 -41,-22 -43,-20 -51,-19 -63,-20 -68,-18 -68,-16 -65,-11 -28,-3 -26,-1 -23,1 -9,1 -8,2 -8,3 -6,3 -4,3 -2,3 -1,2 -7,7 -6,8 -5,10 -5,11 -9,25 -6,30 -5,32 -3,35 -2,73 2,72 6,65 8,50 4,18 2,7 2,5 2,4 3,4 3,4 4,4 8,6 9,6 11,6 11,5 24,10 24,11 11,6 11,7 10,8 8,9 4,5 4,5 3,5 2,6 2,44 -1,55 -5,61 -4,32 -7,31 -8,31 -11,28 -12,27 -16,23 -8,10 -10,10 -10,8 -11,7 -11,6 -13,5 -13,3 -14,2 -25,4 -29,2 -34,-1 -36,-3 -40,-6 -41,-8 -84,-24 -42,-15 -40,-17 -39,-20 -36,-22 -33,-24 -28,-26 -23,-28 -10,-15 -8,-15 -8,-10 -7,-11 -11,-24 -9,-27 -5,-29 -3,-30 -1,-32 1,-31 2,-32 10,-60 13,-52 7,-21 8,-18 7,-13 4,-5 3,-3 6,-8 8,-7 9,-7 11,-5 24,-9 27,-6 62,-8 65,-6 30,-3 28,-5 25,-6 11,-5 10,-4 8,-6 7,-6 6,-7 3,-9 2,-9 v -10 l -2,-12 -4,-13 -6,-13 -6,-12 -6,-10 -8,-9 -8,-8 -8,-7 -8,-6 -9,-5 -19,-7 -19,-5 -20,-2 -20,-1 h -39 -18 l -16,-1 -15,-2 -7,-2 -6,-3 -6,-3 -4,-4 -5,-5 -3,-6 -2,-7 -2,-7 v -8 -9 l 3,-18 5,-21 17,-44 19,-46 18,-45 7,-20 5,-19 2,-17 v -8 l -1,-7 -2,-6 -3,-6 -5,-4 -5,-4 -3,-1 -4,-2 -7,-1 -9,1 -10,1 -23,7 -26,10 -125,59 -68,27 -33,10 -31,6 -15,2 h -15 l -14,-1 -13,-3 -13,-4 -11,-6 -11,-8 -10,-10 -9,-12 -9,-14 -17,-34 -16,-41 -16,-47 -26,-107 -20,-120 -13,-123 -3,-119 1,-56 5,-51 7,-47 10,-40 5,-19 2,-20 1,-20 -2,-21 -7,-44 -12,-45 -69,-194 -16,-49 -12,-49 -7,-48 -1,-46 2,-23 5,-22 7,-22 9,-21 12,-21 14,-19 18,-20 21,-18 23,-16 24,-13 25,-9 26,-6 26,-3 28,-1 27,3 28,5 57,16 58,23 58,30 58,33 110,76 99,75 83,64 34,24 27,16 12,5 12,4 13,3 13,1 12,1 13,-1 25,-5 25,-8 24,-11 22,-13 20,-15 18,-17 14,-17 12,-18 5,-8 3,-9 3,-8 1,-8 1,-8 -1,-7 -3,-7 -3,-6 -5,-6 -6,-5 -8,-7 -11,-6 -28,-13 -80,-26 -211,-56 -110,-31 -98,-34 -40,-18 -34,-20 -14,-10 -11,-10 -9,-11 -6,-11 -7,-6 -5,-6 -4,-5 -2,-5 -1,-3 v -2 l 1,-2 v -3 l 2,-4 3,-4 5,-4 5,-4 13,-7 34,-14 37,-14 18,-8 17,-9 15,-10 6,-5 5,-6 4,-6 3,-7 2,-7 1,-7 -5,-7 -6,-6 -17,-14 -23,-14 -26,-15 -131,-63 -68,-35 -32,-19 -29,-19 -26,-19 -21,-21 -9,-10 -8,-10 -6,-11 -4,-11 -6,-24 -3,-28 v -30 l 2,-33 5,-35 7,-35 9,-36 12,-35 14,-34 16,-31 18,-29 21,-25 22,-21 12,-9 12,-8 13,-6 13,-4 14,-3 14,-1 29,-2 28,-7 29,-9 28,-11 28,-14 27,-16 52,-33 90,-67 35,-26 15,-9 13,-6 11,-1 11,-1 11,1 11,2 21,6 20,8 20,12 20,13 38,31 38,32 37,30 18,12 19,11 18,8 10,2 9,2 21,2 23,1 51,-2 55,-7 54,-9 46,-13 20,-7 16,-7 7,-4 5,-4 5,-4 3,-3 1,-2 1,-2 v -2 -2 -2 l -1,-2 -1,-2 -1,-2 -4,-5 -6,-6 -18,-13 -24,-13 -30,-15 -154,-68 -82,-37 -74,-38 -31,-19 -26,-18 -11,-9 -9,-9 -7,-8 -5,-9 3,-9 4,-10 6,-10 7,-10 19,-22 25,-23 29,-23 33,-24 79,-47 92,-45 101,-39 108,-33 111,-22 124,-13 145,-7 159,-1 164,5 164,11 155,16 139,22 115,28 49,17 46,19 44,22 40,24 38,26 35,27 33,29 29,30 27,30 23,30 21,31 19,31 15,30 12,29 10,28 7,27 5,10 2,9 1,9 -1,8 -3,7 -5,7 -5,7 -7,6 -9,6 -9,5 -21,10 -25,9 -26,8 -110,31 -24,9 -20,9 -9,5 -8,5 -6,6 -5,6 -2,3 -1,3 -1,3 v 3 2 l 1,3 1,2 2,3 4,4 6,4 16,8 39,16 20,8 19,9 9,5 7,6 7,6 5,6 3,7 2,8 -1,8 -2,9 -5,10 -7,10 -10,12 -13,12 -36,28 -50,32 -108,60 -93,47 -136,64 -24,13 -19,12 -8,6 -6,7 -6,6 -4,6 -3,7 -2,7 v 8 8 l 2,8 4,9 10,19 4,5 4,4 6,3 6,2 14,3 18,-1 20,-3 22,-5 51,-18 122,-56 138,-74 267,-152 103,-53 37,-15 15,-4 12,-2 35,-3 h 32 l 30,3 27,6 25,9 22,11 21,13 20,15 18,16 17,18 32,38 60,83 15,22 14,22 26,49 21,51 17,50 12,49 8,45 2,20 v 19 17 l -2,14 -2,6 -3,5 -3,5 -5,4 -5,3 -6,3 -6,2 -8,2 -15,2 -17,1 h -36 -36 l -16,1 -14,3 -7,2 -5,2 -5,3 -5,4 -3,4 -2,5 -2,6 v 7 l 1,7 1,8 6,18 8,19 10,21 27,46 33,51 70,107 32,53 26,51 44,99 40,99 16,50 14,51 11,51 6,51 3,53 v 55 l -2,56 -5,56 -9,55 -12,52 -15,49 -9,22 -10,21 -24,41 -28,40 -32,39 -35,36 -19,16 -18,14 -19,13 -20,11 -19,8 -20,6 -19,4 -19,1 -10,-1 -11,-3 -11,-4 -12,-6 -25,-14 -26,-19 -56,-46 -55,-51 -51,-48 -43,-37 -16,-13 -7,-5 -6,-2 -3,-1 -2,-1 h -2 l -2,1 -1,1 -2,1 v 2 l -1,2 -3,3 -6,7 -8,10 -9,12 -8,15 -9,16 -8,17 -5,19 -4,18 -1,10 1,9 1,10 2,9 3,9 5,9 6,9 7,8 8,8 10,7 12,7 14,7 32,11 64,20 52,22 41,21 34,20 30,17 14,7 15,6 15,4 15,4 17,1 h 18 l 19,-1 18,1 17,1 16,2 16,3 15,4 14,5 13,5 12,6 12,7 10,7 9,8 8,8 6,9 6,9 4,10 1,5 1,6 v 5 l -1,7 -3,13 -4,14 -15,31 -17,33 -17,32 -15,31 -5,14 -3,13 -1,7 -1,5 1,6 1,5 2,5 3,4 4,3 5,3 5,3 6,3 14,4 33,5 35,5 17,2 16,3 15,5 6,2 6,3 5,4 5,4 3,4 3,5 1,6 1,6 -1,6 -2,8 3,15 1,17 v 20 l -2,21 -6,47 -10,50 -13,50 -14,46 -16,39 -7,16 -8,13 -4,5 -4,5 -5,4 -6,3 -5,3 -6,2 -13,2 -14,1 h -14 l -29,-2 -27,-3 -13,-1 -11,1 -5,1 -4,1 -4,2 -4,2 -3,3 -2,3 -2,4 -1,5 v 6 6 l 3,14 6,16 8,18 21,41 24,43 25,45 21,42 9,19 6,19 4,16 1,7 v 7 l -1,6 -1,6 -1,5 -2,5 -2,4 -3,3 -3,3 -4,3 -3,2 -5,2 -9,3 -9,3 -11,1 -46,3 -11,2 -11,2 -11,3 -9,5 -9,6 -9,8 -18,20 -35,44 -18,19 -9,9 -9,7 -9,5 -4,2 -5,1 -5,1 h -5 l -4,-1 -5,-1 -5,-1 -5,-3 -5,-3 -5,-3 -11,-10 -10,-12 -23,-29 -22,-32 -23,-31 -10,-14 -11,-12 -10,-10 -5,-4 -5,-4 -5,-2 -4,-2 h -5 -4 l -4,1 -5,3 -4,4 -4,5 -9,12 -9,15 -39,76 -12,20 -12,19 -14,16 -14,15 -8,6 -8,5 -8,4 -9,3 -9,2 -10,1 -10,-1 -10,-2 -11,-4 -12,-7 -28,-20 -31,-27 -34,-34 -151,-164 -73,-76 -34,-30 -30,-24 -14,-9 -13,-6 -12,-4 -11,-1 -5,1 -4,1 -5,2 -3,3 -4,4 -3,5 -5,12 -3,14 -2,15 v 15 l 2,16 9,34 13,35 19,36 21,37 52,74 110,142 45,61 17,26 13,24 33,73 10,27 4,12 2,10 1,9 v 8 4 l -1,4 -1,3 -2,3 -2,3 -2,3 -3,3 -3,3 -7,5 -8,4 -5,2 -5,1 -13,2 h -15 l -17,-1 -39,-6 -44,-8 -90,-17 -43,-5 -20,-1 -18,1 -18,3 -17,5 -17,6 -18,8 -33,18 -33,20 -31,17 -15,8 -14,6 -14,4 -7,1 -7,1 h -6 l -7,-1 -6,-1 -6,-2 -6,-3 -6,-4 -5,-5 -5,-6 -10,-15 -10,-18 -17,-42 -15,-45 -15,-44 -14,-38 -7,-16 -7,-11 -3,-5 -4,-3 -1,-1 -2,-1 -2,-1 h -2 -4 -3 l -4,2 -4,1 -3,2 -4,3 -4,3 -3,3 -7,9 -7,11 -7,12 -6,15 -13,35 -11,42 -10,49 -9,57 -15,148 -11,182 -6,179 v 142 l 3,49 5,35 3,14 3,12 4,9 5,8 2,3 3,3 2,2 3,2 6,4 7,3 8,2 8,1 19,4 85,16 145,23 155,20 66,6 51,2"
             style="fill:none;stroke:#ffffff;stroke-width:148.40290833;stroke-miterlimit:4;stroke-dasharray:none;stroke-opacity:0.96825412" />
        </g>
        <g
           style="stroke:#ffffff;stroke-width:148.40290833;stroke-miterlimit:4;stroke-dasharray:none;stroke-opacity:0.96825412"
           id="g9308" />
      </g>
      <ellipse
         transform="matrix(0.66365309,0,0,0.70552569,135.16331,-109.16301)"
         id="path10717"
         style="fill:none;stroke:#ffffff;stroke-width:3.82765484;stroke-miterlimit:4;stroke-dasharray:none;stroke-dashoffset:0;stroke-opacity:1"
         cx="382.21954"
         cy="-616.9964"
         rx="15.77201"
         ry="30.201721" />
    </g>
  </g>
</svg>
