<?xml version="1.0" standalone="no"?>
<!DOCTYPE svg PUBLIC "-//W3C//DTD SVG 20010904//EN"
 "http://www.w3.org/TR/2001/REC-SVG-20010904/DTD/svg10.dtd">
<svg version="1.0" xmlns="http://www.w3.org/2000/svg"
 width="165.000000pt" height="55.000000pt" viewBox="0 0 165.000000 55.000000"
 preserveAspectRatio="xMidYMid meet">
<metadata>
Created by potrace 1.15, written by Peter Selinger 2001-2017
</metadata>
<g transform="translate(0.000000,55.000000) scale(0.100000,-0.100000)"
fill="#000000" stroke="none">
<path d="M1403 499 c-18 -5 -33 -15 -33 -22 0 -7 -13 -18 -30 -24 -38 -14 -48
-39 -24 -58 18 -14 18 -15 -4 -21 -21 -6 -22 -10 -18 -66 6 -67 11 -79 30 -72
7 3 16 -2 19 -10 4 -9 2 -16 -3 -16 -14 0 -12 -34 2 -48 16 -16 58 -16 58 0 0
7 7 2 16 -10 8 -12 20 -20 25 -17 5 4 9 -12 9 -34 l0 -41 -130 0 c-71 0 -130
2 -130 4 0 6 51 230 56 249 4 13 -1 17 -24 17 -29 0 -30 -2 -47 -85 -10 -47
-20 -83 -23 -81 -2 3 -12 40 -21 83 -16 72 -19 78 -44 81 -15 2 -27 1 -27 -3
0 -3 11 -56 25 -117 35 -153 35 -148 -26 -148 l-51 0 23 36 c22 36 22 37 4 50
-26 20 -39 17 -50 -9 -6 -12 -20 -23 -33 -25 -45 -7 -68 114 -27 148 25 20 53
5 71 -38 2 -5 54 21 54 27 0 3 -9 19 -19 35 -21 31 -56 55 -81 55 -8 0 -1 -6
16 -13 17 -8 41 -26 53 -42 21 -27 21 -29 5 -41 -16 -12 -20 -10 -31 12 -9 16
-22 25 -38 25 -54 0 -80 -73 -49 -137 23 -46 54 -54 80 -20 20 24 44 26 44 3
0 -8 -9 -25 -20 -39 -11 -14 -20 -28 -20 -31 0 -9 128 -7 133 1 3 7 -17 111
-48 240 -4 18 -1 23 13 23 15 0 21 -16 37 -90 10 -50 21 -93 26 -95 4 -3 17
38 29 90 17 76 25 95 39 95 17 0 16 -9 -10 -122 -15 -68 -28 -129 -29 -135 0
-10 34 -13 140 -13 l140 0 0 50 c0 43 -3 50 -20 50 -13 0 -20 7 -20 20 0 18 3
19 20 10 17 -9 20 -8 20 10 0 14 -11 25 -32 35 -42 17 -51 11 -43 -32 6 -32 4
-34 -17 -31 -26 3 -39 38 -14 38 18 0 21 15 6 25 -6 4 -8 11 -5 16 4 5 -5 9
-19 9 -14 0 -26 6 -27 13 -1 6 -3 31 -5 55 -4 47 8 54 50 26 18 -11 26 -12 31
-3 8 12 -11 29 -32 29 -7 0 -12 4 -10 9 1 5 -7 17 -18 25 l-20 16 20 16 c13
10 31 13 53 9 35 -6 44 8 15 24 -17 9 -17 10 2 18 33 13 135 7 151 -9 14 -13
12 -19 -16 -47 -35 -35 -28 -39 26 -14 35 17 36 17 50 -2 10 -13 11 -21 3 -26
-8 -4 -6 -16 5 -37 18 -35 20 -51 7 -71 -7 -10 -13 -11 -30 -2 -17 10 -21 9
-21 -3 0 -9 11 -18 25 -22 14 -3 23 -10 20 -14 -3 -5 -1 -11 4 -14 6 -4 4 -17
-4 -33 -16 -31 -52 -38 -77 -15 -16 14 -18 14 -18 -1 0 -9 5 -19 10 -22 22
-14 9 -27 -20 -21 -17 3 -30 1 -30 -4 0 -6 18 -10 41 -10 32 0 40 3 35 15 -3
10 1 15 12 16 9 1 22 2 27 4 6 1 16 3 23 3 7 1 10 7 7 12 -4 6 -1 18 6 26 9
11 9 21 1 39 -8 17 -8 31 0 53 9 23 8 35 -4 60 -9 17 -12 34 -7 39 15 15 -21
55 -43 50 -14 -4 -18 -1 -13 12 3 10 -2 25 -12 34 -23 20 -108 29 -150 16z"/>
<path d="M229 475 c-1 -5 -1 -13 -1 -17 1 -3 -5 -12 -13 -18 -8 -7 -15 -28
-15 -47 0 -29 -9 -43 -50 -81 -27 -26 -56 -64 -65 -84 -8 -21 -19 -38 -24 -38
-10 0 -22 -52 -21 -97 0 -17 -7 -38 -15 -47 -9 -9 -12 -16 -6 -16 16 0 31 35
31 75 0 22 6 38 15 41 8 4 15 15 15 27 0 38 41 107 80 134 40 29 50 48 50 94
0 26 23 45 41 33 5 -3 9 -17 9 -32 0 -47 10 -68 41 -86 42 -25 80 -80 86 -126
4 -24 11 -40 19 -40 10 0 14 -13 14 -39 0 -22 5 -43 10 -46 6 -4 10 12 10 42
0 51 19 116 38 135 7 7 11 32 10 57 -1 37 -2 40 -5 13 -2 -18 -8 -30 -13 -27
-4 3 -11 -14 -14 -38 -8 -47 -35 -105 -36 -74 0 9 -4 17 -9 17 -5 0 -14 15
-21 34 -6 18 -35 56 -65 85 -46 42 -55 57 -55 85 0 19 -5 38 -11 41 -6 4 -14
17 -19 29 -5 11 -10 17 -11 11z"/>
<path d="M680 265 c-7 -9 -15 -37 -17 -63 -8 -83 56 -134 94 -75 20 31 22 97
4 131 -14 26 -62 30 -81 7z"/>
</g>
</svg>
